<svg width="23" height="24" viewBox="0 0 23 24" fill="none" xmlns="http://www.w3.org/2000/svg">
<path fill-rule="evenodd" clip-rule="evenodd" d="M2.01257 11.1118C2.49174 6.79934 6.03757 3.25351 10.4459 2.77434C16.1959 2.10351 21.0834 6.60767 21.0834 12.3577C21.0834 16.3827 18.5917 19.8327 15.0459 21.2702C14.6626 21.366 14.3751 21.0785 14.3751 20.791V18.2993C14.3751 17.4368 13.9917 16.5743 13.4167 16.0952C15.6209 15.616 17.2501 14.3702 17.2501 12.2618C17.2501 11.1118 16.7709 10.1535 16.1001 9.38684C16.1959 9.19517 16.2917 8.81184 16.2917 8.04517C16.2917 7.66184 16.2917 7.08684 16.1001 6.51184C16.1001 6.51184 14.6626 6.51184 13.4167 7.75767C12.8417 7.56601 12.1709 7.47017 11.5001 7.47017C10.8292 7.47017 10.1584 7.56601 9.67924 7.75767C8.33757 6.51184 6.9959 6.51184 6.9959 6.51184C6.7084 7.08684 6.7084 7.66184 6.7084 8.04517C6.7084 8.71601 6.80424 9.19517 6.90007 9.38684C6.22924 10.1535 5.75007 11.2077 5.75007 12.2618C5.75007 14.3702 7.37924 15.616 9.5834 16.0952C9.0084 16.4785 8.7209 17.1493 8.62507 17.8202C8.4334 17.916 8.1459 18.0118 7.76257 18.0118C7.47507 18.0118 6.90007 17.8202 6.4209 17.0535C6.22924 16.766 5.75007 16.0952 5.17507 16.0952C5.07924 16.0952 4.79174 16.0952 4.79174 16.2868C4.79174 16.3604 4.8482 16.3775 5.00447 16.4248C5.05179 16.4391 5.10825 16.4562 5.17507 16.4785C5.46257 16.766 5.65424 17.0535 5.75007 17.4368C5.8459 18.1077 6.4209 19.2577 7.76257 19.2577C8.24174 19.2577 8.62507 19.1618 8.62507 19.1618V20.6952C8.62507 21.0785 8.33757 21.2702 8.05007 21.1743C4.1209 19.641 1.5334 15.616 2.01257 11.1118Z" fill="#0F0A0A"/>
</svg>
